<svg width="244" height="198" viewBox="0 0 244 198" fill="none" xmlns="http://www.w3.org/2000/svg">
<path d="M38.3216 114.965C17.1572 93.8002 17.1572 59.4859 38.3216 38.3215C59.486 17.157 93.8004 17.157 114.965 38.3215L197.562 120.919L139.538 178.943C129.255 189.226 112.583 189.226 102.3 178.943L38.3216 114.965Z" fill="#80ED99"/>
<path d="M204.708 115.403C225.873 94.2385 225.873 59.9241 204.708 38.7597C183.544 17.5953 149.229 17.5952 128.065 38.7597L64.0867 102.738C53.8038 113.021 53.8038 129.693 64.0867 139.976L103.492 179.381C113.775 189.664 130.447 189.664 140.73 179.381L204.708 115.403Z" fill="#57CC99"/>
</svg>
