<svg width="14" height="17" viewBox="0 0 14 17" fill="none" xmlns="http://www.w3.org/2000/svg">
<path d="M2.22917 8.57813H7.42708C7.57292 8.57813 7.6875 8.46355 7.6875 8.31771C7.6875 8.17709 7.57292 8.0573 7.42708 8.0573H2.22917C2.08854 8.0573 1.96875 8.17709 1.96875 8.31771C1.96875 8.46355 2.08854 8.57813 2.22917 8.57813Z" fill="#5271FF"/>
<path d="M5.86979 9.35938H2.22917C2.08854 9.35938 1.96875 9.47396 1.96875 9.61979C1.96875 9.76042 2.08854 9.88021 2.22917 9.88021H5.86979C6.01042 9.88021 6.13021 9.76042 6.13021 9.61979C6.13021 9.47396 6.01042 9.35938 5.86979 9.35938Z" fill="#5271FF"/>
<path d="M5.86979 12.9948H2.22917C2.08854 12.9948 1.96875 13.1146 1.96875 13.2552C1.96875 13.401 2.08854 13.5156 2.22917 13.5156H5.86979C6.01042 13.5156 6.13021 13.401 6.13021 13.2552C6.13021 13.1146 6.01042 12.9948 5.86979 12.9948Z" fill="#5271FF"/>
<path d="M2.22917 12.2188H4.82812C4.97396 12.2188 5.08854 12.099 5.08854 11.9583C5.08854 11.8125 4.97396 11.6979 4.82812 11.6979H2.22917C2.08854 11.6979 1.96875 11.8125 1.96875 11.9583C1.96875 12.099 2.08854 12.2188 2.22917 12.2188Z" fill="#5271FF"/>
<mask id="mask0_10_7" style="mask-type:luminance" maskUnits="userSpaceOnUse" x="0" y="0" width="14" height="17">
<path d="M0.671875 0.25H13.6302V16.1979H0.671875V0.25Z" fill="white"/>
</mask>
<g mask="url(#mask0_10_7)">
<path d="M9.26563 11.3281L8.41146 10.8177L11.401 5.81771L12.2865 6.33855L9.26563 11.3281ZM8.23438 11.3125L8.91146 11.724L7.95833 12.5417L8.23438 11.3125ZM10.5469 15.3385H1.19271V2.59896H3.79167V3.1198C3.79167 3.26563 3.90625 3.38021 4.05208 3.38021H7.6875C7.83333 3.38021 7.94792 3.26563 7.94792 3.1198V2.59896H10.5469V6.22917L7.83333 10.7708C7.82292 10.7865 7.82292 10.8073 7.8125 10.8229C7.8125 10.8333 7.80729 10.8385 7.80208 10.849L7.28125 13.1875C7.26042 13.2969 7.30729 13.4115 7.40104 13.4688C7.44271 13.4948 7.48958 13.5052 7.53646 13.5052C7.59896 13.5052 7.65625 13.4844 7.70833 13.4427L9.52604 11.8854C9.52604 11.8802 9.53125 11.8802 9.53125 11.8802C9.53646 11.8698 9.54167 11.8646 9.54688 11.8594C9.55729 11.849 9.56771 11.8385 9.57292 11.8281C9.57292 11.8229 9.57813 11.8229 9.57813 11.8229L10.5469 10.2188V15.3385ZM4.3125 1.82292H7.42708V2.85938H4.3125V1.82292ZM5.60938 1.04167C5.60938 0.895838 5.72917 0.781255 5.86979 0.781255C6.01042 0.781255 6.13021 0.895838 6.13021 1.04167C6.13021 1.1823 6.01042 1.30209 5.86979 1.30209C5.72917 1.30209 5.60938 1.1823 5.60938 1.04167ZM12.0208 4.77605L12.9219 5.29167L12.5573 5.89063L11.6667 5.3698L12.0208 4.77605ZM13.651 6.71355C13.6094 6.57292 13.5208 6.45313 13.3958 6.38542L13.0052 6.15626L13.5 5.33334C13.5365 5.27605 13.5469 5.20313 13.5313 5.13542C13.5156 5.06771 13.4688 5.01042 13.4115 4.97396L12.0573 4.19271C11.9375 4.12501 11.7813 4.16667 11.7083 4.28646L11.0938 5.31771C11.0885 5.32292 11.0833 5.32292 11.0833 5.32813C11.0781 5.33334 11.0781 5.33855 11.0781 5.34376L11.0677 5.35417V2.33855C11.0677 2.19792 10.9531 2.08334 10.8073 2.08334H7.94792V1.56251C7.94792 1.41667 7.83333 1.30209 7.6875 1.30209H6.60417C6.63021 1.21876 6.65104 1.13542 6.65104 1.04167C6.65104 0.60938 6.30208 0.260422 5.86979 0.260422C5.4375 0.260422 5.08854 0.60938 5.08854 1.04167C5.08854 1.13542 5.10938 1.21876 5.13542 1.30209H4.05208C3.90625 1.30209 3.79167 1.41667 3.79167 1.56251V2.08334H0.932292C0.786458 2.08334 0.671875 2.19792 0.671875 2.33855V15.5938C0.671875 15.7396 0.786458 15.8542 0.932292 15.8542H10.8073C10.9531 15.8542 11.0677 15.7396 11.0677 15.5938V9.35938L12.7344 6.59896L13.1354 6.83334C13.1354 6.83334 13.1406 6.85938 13.1458 6.85938L11.7344 9.21355C11.6563 9.33855 11.6979 9.4948 11.8229 9.56771C11.8646 9.59376 11.9115 9.60417 11.9531 9.60417C12.0417 9.60417 12.1302 9.56251 12.1771 9.47917L13.5885 7.12501C13.6667 7.00001 13.6875 6.85417 13.651 6.71355Z" fill="#5271FF"/>
</g>
<path d="M2.48958 4.42188H3.15104C3.22917 4.53126 3.30729 4.72917 3.15104 4.94271H2.48958V4.42188ZM2.22917 6.50001C2.375 6.50001 2.48958 6.38021 2.48958 6.23959V5.56771L3.29167 6.3698L2.82812 6.83334C2.72396 6.93751 2.72396 7.10417 2.82812 7.20313C2.88021 7.25521 2.94271 7.28126 3.01042 7.28126C3.07813 7.28126 3.14583 7.25521 3.19271 7.20313L3.66146 6.73959L4.125 7.20313C4.17708 7.25521 4.24479 7.28126 4.3125 7.28126C4.375 7.28126 4.44271 7.25521 4.49479 7.20313C4.59375 7.10417 4.59375 6.93751 4.49479 6.83334L4.02604 6.3698L4.49479 5.90105C4.59375 5.80209 4.59375 5.63542 4.49479 5.53646C4.39062 5.4323 4.22917 5.4323 4.125 5.53646L3.66146 6.00001L3.11979 5.45834H3.27083C3.33854 5.45834 3.40625 5.4323 3.45312 5.38542C3.96875 4.86459 3.73958 4.26042 3.45312 3.97917C3.40625 3.92709 3.33854 3.90105 3.27083 3.90105H2.22917C2.08854 3.90105 1.96875 4.01563 1.96875 4.16146V6.23959C1.96875 6.38021 2.08854 6.50001 2.22917 6.50001Z" fill="#5271FF"/>
</svg>
