<svg width="16" height="14" viewBox="0 0 16 14" fill="none" xmlns="http://www.w3.org/2000/svg">
<mask id="mask0_10_8" style="mask-type:luminance" maskUnits="userSpaceOnUse" x="0" y="0" width="16" height="14">
<path d="M0.234375 0.0416718H15.1875V14H0.234375V0.0416718Z" fill="white"/>
</mask>
<g mask="url(#mask0_10_8)">
<path d="M7.59374 13.8229C7.26041 13.8229 6.92707 13.8021 6.59895 13.7552C5.29166 13.5677 4.08332 13.0156 3.08853 12.1667L0.56249 12.5885C0.463531 12.6042 0.364573 12.5625 0.307281 12.4844C0.249989 12.4063 0.239573 12.3021 0.286448 12.2135L1.39582 10.0104C0.760406 8.75521 0.53124 7.35417 0.729156 5.94792C0.968739 4.30209 1.79686 2.79688 3.0677 1.70834C4.32291 0.635421 5.92186 0.0416718 7.56249 0.0416718C7.89582 0.0416718 8.22916 0.0677124 8.55728 0.114588H8.56249C10.3854 0.375004 12.0052 1.33334 13.1094 2.81251C14.2187 4.28646 14.6875 6.09896 14.4219 7.91667C14.1875 9.56771 13.3594 11.0729 12.0885 12.1563C10.8333 13.2344 9.23437 13.8229 7.59374 13.8229ZM3.16666 11.6302C3.22916 11.6302 3.29166 11.651 3.33853 11.6979C4.27603 12.526 5.42707 13.0573 6.67186 13.2396C6.97395 13.2813 7.28645 13.3073 7.58853 13.3073C10.7448 13.3073 13.4635 10.9583 13.9114 7.84376C14.151 6.16667 13.7187 4.48959 12.6979 3.12501C11.6719 1.75521 10.1771 0.869797 8.48957 0.630213L8.48437 0.625005C8.18228 0.583338 7.86978 0.562505 7.56249 0.562505C4.41145 0.562505 1.6927 2.90626 1.24478 6.02084C1.05207 7.35938 1.28645 8.69792 1.91666 9.89063C1.95832 9.96355 1.95832 10.0521 1.92186 10.1302L0.979156 11.9896L3.12499 11.6354C3.13541 11.6302 3.15103 11.6302 3.16666 11.6302ZM9.76562 10.9063C9.29166 10.9063 8.65624 10.7344 7.71353 10.3438C6.49999 9.84376 5.29686 8.79688 4.32811 7.39584C4.31249 7.37501 4.30207 7.35938 4.29166 7.34896V7.34376L4.28124 7.33334C3.97395 6.91146 3.44791 6.07292 3.44791 5.19271C3.44791 4.16146 3.96874 3.63542 4.18749 3.41667L4.20832 3.39584C4.43228 3.16667 4.68228 3.05209 4.95311 3.05209C5.56249 3.05209 6.05207 3.64584 6.30728 4.20834C6.55207 4.73959 6.69791 5.51563 6.32291 5.94271C6.28124 5.9948 6.23436 6.04167 6.19791 6.08334C6.14061 6.14063 6.09374 6.19271 6.04166 6.25521C6.04166 6.26042 6.03645 6.26042 6.03645 6.26042L6.03124 6.26563C6.01041 6.29167 5.97916 6.32813 5.97395 6.34376C5.97395 6.34896 5.97916 6.35938 5.98436 6.37501C6.11978 6.60417 6.49478 7.18751 7.01561 7.64584C7.66145 8.22396 8.18749 8.4323 8.43749 8.53126C8.46353 8.54167 8.48436 8.55209 8.49999 8.5573C8.53124 8.57292 8.56249 8.57813 8.59374 8.57813C8.61457 8.57813 8.65624 8.57292 8.68228 8.54688C8.79686 8.42188 8.94791 8.21355 9.10416 7.98959L9.18228 7.89063C9.34895 7.65105 9.55728 7.60417 9.69791 7.60417C9.78124 7.60417 9.86978 7.6198 9.95832 7.65105C11.5364 8.19792 11.8333 8.89584 11.8021 9.38542C11.7604 10.125 10.9427 10.6979 10.2031 10.8594C10.0885 10.8802 9.94791 10.9063 9.76562 10.9063ZM4.70832 7.03646C4.71874 7.04688 4.73436 7.06771 4.7552 7.09896C5.67186 8.42188 6.79166 9.40105 7.91666 9.86459C8.78124 10.224 9.36457 10.3854 9.76562 10.3854C9.90103 10.3854 9.99999 10.3698 10.0937 10.349C10.6458 10.2292 11.2552 9.80209 11.2812 9.35417C11.3073 8.92188 10.7656 8.47917 9.78124 8.14063C9.78124 8.14063 9.78124 8.14063 9.77603 8.14063C9.74999 8.13021 9.71874 8.1198 9.69791 8.1198C9.68228 8.1198 9.65103 8.1198 9.60416 8.19271L9.53124 8.29167C9.35936 8.53126 9.20312 8.75001 9.06249 8.90105C8.9427 9.03126 8.77603 9.09896 8.59374 9.09896C8.49478 9.09896 8.39582 9.07813 8.30207 9.04167C8.28645 9.03126 8.26562 9.02605 8.24478 9.01563C7.98957 8.91146 7.38541 8.67188 6.66666 8.03646C6.11457 7.54688 5.72395 6.94792 5.53645 6.63542C5.33332 6.28646 5.54687 6.03646 5.63541 5.92709H5.64061C5.70311 5.84896 5.76041 5.78646 5.8177 5.72396C5.85936 5.6823 5.89582 5.64584 5.93228 5.60417C6.09895 5.41146 6.05207 4.90626 5.83332 4.42188C5.60416 3.91146 5.24999 3.56771 4.95311 3.56771C4.82811 3.56771 4.70311 3.63542 4.57811 3.76042L4.55728 3.78126C4.36978 3.97396 3.96874 4.37501 3.96874 5.19271C3.96874 5.72396 4.23436 6.39584 4.70311 7.02605L4.70832 7.03646Z" fill="#5271FF"/>
</g>
<mask id="mask1_10_8" style="mask-type:luminance" maskUnits="userSpaceOnUse" x="0" y="8" width="5" height="6">
<path d="M0.234375 8.33334H5V13.6667H0.234375V8.33334Z" fill="white"/>
</mask>
<g mask="url(#mask1_10_8)">
<path d="M0.515615 12.5885C0.437489 12.5885 0.359364 12.5521 0.307281 12.4844C0.249989 12.4063 0.239573 12.3021 0.286448 12.2135L2.08332 8.65104C2.15103 8.52083 2.30728 8.47396 2.43228 8.53646C2.56249 8.59896 2.61457 8.76042 2.54686 8.88542L0.979156 11.9896L4.53645 11.3958C4.67707 11.375 4.81249 11.4688 4.83332 11.6146C4.85936 11.7552 4.76561 11.8854 4.61978 11.9115L0.56249 12.5885C0.546864 12.5885 0.53124 12.5885 0.515615 12.5885Z" fill="#5271FF"/>
</g>
</svg>
