<svg width="16" height="14" viewBox="0 0 16 14" fill="none" xmlns="http://www.w3.org/2000/svg">
<mask id="mask0_10_9" style="mask-type:luminance" maskUnits="userSpaceOnUse" x="0" y="3" width="16" height="6">
<path d="M0.776031 3.66669H15.7292V9.00002H0.776031V3.66669Z" fill="white"/>
</mask>
<g mask="url(#mask0_10_9)">
<path d="M1.49479 8.40105H14.8854C14.9635 7.94272 15.0938 7.13543 15.0938 6.83334C15.0938 6.53126 14.9635 5.72918 14.8854 5.27084H1.49479L1.30208 6.83334L1.49479 8.40105ZM15.276 8.8698H1.08333L0.828125 6.83334L1.08333 4.80209H15.276L15.3125 4.9948C15.3229 5.05209 15.5625 6.3698 15.5625 6.83334C15.5625 7.30209 15.3229 8.6198 15.3125 8.67709L15.276 8.8698Z" fill="#5271FF"/>
</g>
<path d="M6.82812 5.93231L6.30208 7.90627H5.79688L5.52083 6.81773L5.25521 7.90627H4.72917L4.20312 5.93231H4.77083L5.04688 7.06773L5.31771 5.93231H5.79167L6.08854 7.07294L6.36458 5.93231H6.82812Z" fill="#5271FF"/>
<path d="M9.49478 5.93231L8.96874 7.90627H8.45832L8.18228 6.81773L7.92186 7.90627H7.39061L6.86978 5.93231H7.43749L7.71353 7.06773L7.98436 5.93231H8.45832L8.74999 7.07294L9.03124 5.93231H9.49478Z" fill="#5271FF"/>
<path d="M12.1562 5.93231L11.6354 7.90627H11.125L10.849 6.81773L10.5885 7.90627H10.0573L9.53125 5.93231H10.1042L10.3802 7.06773L10.651 5.93231H11.125L11.4167 7.07294L11.6927 5.93231H12.1562Z" fill="#5271FF"/>
<path d="M3.09375 10.6302C3.40104 10.4636 4.06771 10.1459 5.04167 9.89065C4.94271 9.4896 4.86458 9.06773 4.80729 8.63544H2.09375C2.3125 9.3594 2.65104 10.0365 3.09375 10.6302Z" fill="#5271FF"/>
<path d="M8.375 3.64585V5.03648H10.9062C10.8281 4.47398 10.7187 3.95315 10.5781 3.47919C9.78646 3.57294 9.04687 3.62502 8.375 3.64585Z" fill="#5271FF"/>
<path d="M7.80728 3.65105C7.01561 3.65105 6.32811 3.60939 5.76561 3.54689C5.73957 3.54168 5.71353 3.54168 5.6927 3.53647C5.56249 3.9948 5.45832 4.50001 5.38541 5.03647H7.91145V3.65105C7.87499 3.65105 7.84374 3.65105 7.80728 3.65105Z" fill="#5271FF"/>
<path d="M3.11458 3.01562C2.66146 3.61458 2.3125 4.29687 2.09375 5.03646H4.80729C4.88021 4.48437 4.98958 3.95833 5.125 3.46354C4.09896 3.3125 3.41667 3.11458 3.11458 3.01562Z" fill="#5271FF"/>
<path d="M5.59374 9.76044C5.67707 9.74481 5.76041 9.72919 5.84374 9.71356C6.52082 9.58856 7.20832 9.52606 7.91145 9.52606V8.63544H5.38541C5.43749 9.03127 5.51041 9.40627 5.59374 9.76044Z" fill="#5271FF"/>
<path d="M5.63543 11.5729C5.45314 11.1927 5.29688 10.7813 5.16668 10.3386C4.31251 10.5625 3.70834 10.8386 3.39584 11C4.23438 11.9584 5.35418 12.6667 6.63022 12.9896C6.26043 12.6459 5.92189 12.1667 5.63543 11.5729Z" fill="#5271FF"/>
<path d="M10.651 11.5729C10.3594 12.1823 10.0156 12.6667 9.63541 13.0104C10.9375 12.7083 12.0885 11.9948 12.9427 11.0261C12.3073 10.7656 11.6927 10.5625 11.1042 10.4115C10.9739 10.8229 10.8229 11.2136 10.651 11.5729Z" fill="#5271FF"/>
<path d="M5.71353 10.2136C6.21353 11.9115 7.0677 12.9896 7.91145 13.1563V9.99481C7.16145 9.99481 6.49999 10.0677 5.95311 10.1667C5.86978 10.1823 5.79166 10.1979 5.71353 10.2136Z" fill="#5271FF"/>
<path d="M8.375 10.0052V13.1563C9.21354 12.9896 10.0521 11.9375 10.5521 10.2813C9.77083 10.1094 9.04167 10.0261 8.375 10.0052Z" fill="#5271FF"/>
<path d="M8.375 0.515625V3.17708C9.00521 3.16146 9.69271 3.11458 10.4323 3.02604C9.92187 1.57813 9.15104 0.666666 8.375 0.515625Z" fill="#5271FF"/>
<path d="M5.63542 2.09898C5.92188 1.50523 6.26042 1.02606 6.63021 0.682312C5.375 1.00002 4.27083 1.68752 3.4375 2.62502C3.78125 2.72919 4.40625 2.89065 5.26562 3.01565C5.375 2.69273 5.5 2.38544 5.63542 2.09898Z" fill="#5271FF"/>
<path d="M5.83334 3.08333C6.40626 3.14583 7.10418 3.1875 7.91147 3.1875V0.515625C7.13022 0.671874 6.34376 1.60417 5.83334 3.08333Z" fill="#5271FF"/>
<path d="M8.375 9.53648C8.64063 9.54169 8.90104 9.56252 9.16146 9.58856C9.66667 9.63544 10.1719 9.71877 10.6771 9.82815C10.7708 9.45835 10.849 9.05731 10.9062 8.63544H8.375V9.53648Z" fill="#5271FF"/>
<path d="M11.1458 3.40104C11.2917 3.91146 11.4063 4.46354 11.4844 5.03646H14.2656C14.0469 4.29167 13.6927 3.60417 13.2344 3C12.5 3.17187 11.8073 3.30208 11.1458 3.40104Z" fill="#5271FF"/>
<path d="M10.651 2.09896C10.7812 2.36458 10.8958 2.65104 11 2.94792C11.6042 2.86458 12.2396 2.75 12.901 2.59896C12.0469 1.65104 10.9167 0.958333 9.63541 0.65625C10.0156 1.00521 10.3594 1.48958 10.651 2.09896Z" fill="#5271FF"/>
<path d="M11.2292 9.95835C11.7812 10.1042 12.3385 10.2865 12.8906 10.5L12.2917 8.88544L13.9375 9.50002C14.0677 9.21877 14.1771 8.93231 14.2656 8.63544H11.4844C11.4219 9.09377 11.3385 9.53648 11.2292 9.95835Z" fill="#5271FF"/>
<mask id="mask1_10_9" style="mask-type:luminance" maskUnits="userSpaceOnUse" x="12" y="9" width="4" height="4">
<path d="M12.9427 9.52606H15.7292V12.6667H12.9427V9.52606Z" fill="white"/>
</mask>
<g mask="url(#mask1_10_9)">
<path d="M16.0469 12.2604L14.901 11.1146L15.8021 10.6094L12.9531 9.54688L14.0104 12.401L14.5208 11.5L15.6667 12.6458L16.0469 12.2604Z" fill="#5271FF"/>
</g>
</svg>
